<svg xmlns="http://www.w3.org/2000/svg" xmlns:xlink="http://www.w3.org/1999/xlink" version="1.1" x="0px" y="0px" viewBox="0 0 100 125" style="enable-background:new 0 0 100 100;" xml:space="preserve"><path d="M37.4,86.7c-0.3,0-0.6,0-0.9,0c-0.3,0-0.6,0-0.9,0l-1.3,0c-1.4,0-2.7,0-4.1,0c-2.6,0-5.1-0.5-7.4-1  c-5.7-1.2-11.1-3.4-16.2-6.6c-0.2-0.1-0.5-0.3-0.8-0.7c-0.5-0.6-0.6-1.5-0.3-2.2c0.4-0.7,1.2-1.1,2-1.1c4.4,0.4,8.6,0.1,12.7-1.1  c2.6-0.7,5.1-1.8,7.4-3.1c-6-1.8-10.3-6-12.8-12.4c-0.3-0.7-0.1-1.4,0.3-2c0.3-0.4,0.7-0.6,1.1-0.7c-1.3-1-2.4-2.1-3.4-3.3  C10,49,8.6,44.9,8.6,40.2c0-0.7,0.4-1.4,1-1.7c0.6-0.4,1.3-0.4,2-0.1c0.1,0.1,0.3,0.2,0.4,0.2c-1.3-1.9-2.2-4.1-2.7-6.4  c-1.1-4.8-0.4-9.6,2.1-14c0.3-0.6,0.9-1,1.5-1c0.7-0.1,1.3,0.2,1.7,0.7l0.7,0.8c7,8.1,15.9,13.4,26.3,15.7c1.5,0.3,3.2,0.6,5,0.8  c-0.1-0.9-0.1-1.9,0-2.9c0.3-5.4,2.6-9.9,6.6-13.5c3-2.7,6.6-4.2,10.5-4.6c6-0.6,11.2,1.2,15.5,5.2c2.8-0.6,5.4-1.6,8.2-3.1  c0.1-0.1,0.8-0.4,1.1-0.6l0.2-0.1c0.7-0.4,1.6-0.3,2.3,0.2c0.6,0.5,0.9,1.4,0.6,2.2c-0.7,2-1.6,3.7-2.7,5.3c0.7-0.3,1.5-0.6,2.3-0.9  c0.8-0.3,1.8-0.1,2.3,0.6c0.6,0.7,0.6,1.6,0.1,2.4c-0.8,1.2-1.6,2.3-2.7,3.5c-1.7,2-3.6,3.8-5.6,5.3c0,0.5,0,1,0,1.5l0,0.6  c0,0,0,0,0,0c0,0,0,0,0,0l0,0c0,0.2,0,0.4,0,0.6c-0.5,12.3-4.8,23.3-12.7,32.6C66,77.1,57.8,82.3,48,85c-3,0.8-6.1,1.4-9.2,1.6  C38.3,86.6,37.9,86.7,37.4,86.7z M35.7,82.6c0.3,0,0.6,0,0.9,0c0.7,0,1.3,0,1.9,0c2.9-0.2,5.7-0.7,8.5-1.5c9-2.5,16.5-7.2,22.5-14.3  c7.4-8.7,11.4-19,11.8-30.5c0,0,0,0,0,0l0-0.8c0-0.7,0-1.4,0-2c0-0.6,0.2-1.6,1.1-2.3c1.3-0.9,2.5-2,3.6-3.1  c-1.3,0.3-2.5,0.5-3.7,0.6c-0.9,0.1-1.8-0.5-2.1-1.3c-0.3-0.9,0-1.8,0.8-2.3c1.5-1,2.8-2.1,3.9-3.4c-1.8,0.7-3.6,1.2-5.5,1.6  c-1,0.2-1.9-0.1-2.6-0.8c-3.5-3.5-7.7-4.9-12.7-4.5c-3.1,0.3-5.9,1.5-8.3,3.6c-3.3,2.9-5,6.4-5.3,10.7c-0.1,1.4,0,2.8,0.3,4  c0.3,1.1-0.2,1.8-0.5,2.1c-0.2,0.2-0.9,0.8-1.9,0.6c-0.1,0-0.1,0-0.2,0c-2.7-0.2-5.2-0.5-7.4-1C30.1,36,21,30.8,13.6,22.8  c-1,2.8-1.1,5.6-0.5,8.5c0.9,3.8,2.9,6.9,6.3,9.4c0.7,0.5,1,1.4,0.7,2.3c-0.3,0.8-1.1,1.4-1.9,1.4c-1.8,0-3.6-0.4-5.4-1  c0.5,2.5,1.5,4.7,3.1,6.7c2.3,2.8,5.1,4.6,8.8,5.5c0.9,0.2,1.5,1,1.5,1.9s-0.6,1.7-1.5,2c-1.6,0.4-3.2,0.7-4.9,0.7  c2.7,4.8,7,7.3,13,7.8c0.8,0.1,1.5,0.6,1.8,1.4s0,1.6-0.7,2.2c-3.8,3-8.1,5.1-12.7,6.4c-2,0.6-4,0.9-6,1.2c2.7,1.2,5.5,2.1,8.4,2.7  c2.4,0.5,4.5,0.9,6.6,0.9c1.4,0,2.7,0,4.1,0L35.7,82.6C35.7,82.6,35.7,82.6,35.7,82.6z M48.8,35.4C48.9,35.4,48.9,35.4,48.8,35.4  C48.9,35.4,48.9,35.4,48.8,35.4z M84.7,34.5C84.7,34.5,84.7,34.5,84.7,34.5C84.7,34.5,84.7,34.5,84.7,34.5z" fill="#606060"/></svg>